<svg height="480pt" viewBox="-63 0 479 480" width="480pt" xmlns="http://www.w3.org/2000/svg"><path d="m72.5 8h256c8.835938 0 16 7.164062 16 16v432c0 8.835938-7.164062 16-16 16h-304c-8.835938 0-16-7.164062-16-16v-144l24-24v-40h-24v-32l48-48v-144c0-8.835938 7.164062-16 16-16zm0 0" fill="#9196a9"/><g fill="#ffbc05"><path d="m88.5 56h32v80h-32zm0 0"/><path d="m152.5 40h32v96h-32zm0 0"/><path d="m216.5 56h32v80h-32zm0 0"/><path d="m280.5 40h32v96h-32zm0 0"/></g><path d="m40.5 400h272v40h-272zm0 0" fill="#354468"/><path d="m328.5 0h-256c-13.253906 0-24 10.746094-24 24v140.6875l-45.65625 45.65625c-1.5 1.5-2.34375 3.535156-2.34375 5.65625v32c0 4.417969 3.582031 8 8 8h16v28.6875l-21.65625 21.65625c-1.5 1.5-2.34375 3.535156-2.34375 5.65625v144c0 13.253906 10.746094 24 24 24h304c13.253906 0 24-10.746094 24-24v-432c0-13.253906-10.746094-24-24-24zm8 456c0 4.417969-3.582031 8-8 8h-304c-4.417969 0-8-3.582031-8-8v-140.6875l21.65625-21.65625c1.5-1.5 2.34375-3.535156 2.34375-5.65625v-40c0-4.417969-3.582031-8-8-8h-16v-20.6875l45.65625-45.65625c1.5-1.5 2.34375-3.535156 2.34375-5.65625v-144c0-4.417969 3.582031-8 8-8h256c4.417969 0 8 3.582031 8 8zm0 0"/><path d="m88.5 144h32c4.417969 0 8-3.582031 8-8v-80c0-4.417969-3.582031-8-8-8h-32c-4.417969 0-8 3.582031-8 8v80c0 4.417969 3.582031 8 8 8zm8-80h16v64h-16zm0 0"/><path d="m152.5 144h32c4.417969 0 8-3.582031 8-8v-96c0-4.417969-3.582031-8-8-8h-32c-4.417969 0-8 3.582031-8 8v96c0 4.417969 3.582031 8 8 8zm8-96h16v80h-16zm0 0"/><path d="m216.5 144h32c4.417969 0 8-3.582031 8-8v-80c0-4.417969-3.582031-8-8-8h-32c-4.417969 0-8 3.582031-8 8v80c0 4.417969 3.582031 8 8 8zm8-80h16v64h-16zm0 0"/><path d="m312.5 32h-32c-4.417969 0-8 3.582031-8 8v96c0 4.417969 3.582031 8 8 8h32c4.417969 0 8-3.582031 8-8v-96c0-4.417969-3.582031-8-8-8zm-8 96h-16v-80h16zm0 0"/><path d="m312.5 392h-272c-4.417969 0-8 3.582031-8 8v40c0 4.417969 3.582031 8 8 8h272c4.417969 0 8-3.582031 8-8v-40c0-4.417969-3.582031-8-8-8zm-8 40h-256v-24h256zm0 0"/><path d="m80.5 160h240v16h-240zm0 0"/></svg>